<svg xmlns="http://www.w3.org/2000/svg" viewBox="0 0 321.12 39.13"><defs><style>.cls-1{fill:#fff;}</style></defs><g id="Capa_2" data-name="Capa 2"><g id="Capa_1-2" data-name="Capa 1"><polygon class="cls-1" points="189.79 4.08 202.34 4.08 202.34 35.46 206.57 35.46 206.57 4.08 219.12 4.08 219.12 0 189.79 0 189.79 4.08"/><path class="cls-1" d="M250.1.29H254l.07,19.86a15.61,15.61,0,0,1-4.31,11.33,14.42,14.42,0,0,1-10.5,4.38A14,14,0,0,1,229,31.66a15.16,15.16,0,0,1-4.44-11.25L224.64.29h4l-.07,20a10.76,10.76,0,0,0,3,7.94,12,12,0,0,0,7.79,3.48,11.18,11.18,0,0,0,7.29-3c2.24-2.17,3.38-4.66,3.38-8.88Z"/><polygon class="cls-1" points="4.33 32.03 4.33 0.32 0 0.32 0 35.91 20.59 35.91 20.59 32.03 4.33 32.03"/><rect class="cls-1" x="142.76" y="0.12" width="4.73" height="36.03"/><polygon class="cls-1" points="155 4.49 167.56 4.49 167.56 35.86 171.78 35.86 171.78 4.49 184.33 4.49 184.33 0.41 155 0.41 155 4.49"/><path class="cls-1" d="M282.3,1.68C279.92.83,276.07.41,270.86.41h-9.17V35.86h13c4.37,0,7.83-.65,10.27-1.93a14.84,14.84,0,0,0,6-6,18.8,18.8,0,0,0,2.3-9.37A19.16,19.16,0,0,0,290.38,8a15.57,15.57,0,0,0-8.08-6.28m4.59,24.88a11.19,11.19,0,0,1-6,4.46c-1.82.59-5.15.88-9.9.88h-5.3V4.48h3.74c4.94,0,8.52.33,10.66,1a12,12,0,0,1,6.6,4.76,14.6,14.6,0,0,1,2.38,8.41,13.85,13.85,0,0,1-2.19,7.93"/><polygon class="cls-1" points="321.12 4.49 321.12 0.41 300.51 0.41 300.51 35.86 320.98 35.86 320.98 31.78 304.66 31.78 304.66 18.79 320.98 18.79 320.98 14.71 304.66 14.71 304.66 4.49 321.12 4.49"/><polygon class="cls-1" points="90.84 26.79 67.58 0 66.39 0 66.39 36.15 70.64 36.15 70.64 9.69 93.7 36.15 94.92 36.15 94.92 0 90.84 0 90.84 26.79"/><path class="cls-1" d="M121.34,18.51v3.83h10a11.5,11.5,0,0,1-3.84,7.11,11.24,11.24,0,0,1-7.79,2.86,13.46,13.46,0,0,1-7-1.92,13.73,13.73,0,0,1-5.17-5.28A14.36,14.36,0,0,1,105.64,18a14.16,14.16,0,0,1,1.81-6.92,13.47,13.47,0,0,1,5.1-5.17A13.1,13.1,0,0,1,119.28,4h.16a12.19,12.19,0,0,1,5.8,1.37,17.55,17.55,0,0,1,5.59,4.05l.21.22,2.73-2.77-.2-.2a23,23,0,0,0-7-5,17.63,17.63,0,0,0-7.4-1.58,16.66,16.66,0,0,0-8.83,2.37A16.92,16.92,0,0,0,104.05,9a18.67,18.67,0,0,0-2.28,9.06,18,18,0,0,0,4,11.53,16.76,16.76,0,0,0,13.89,6.48c4.82,0,8.46-1.49,11.45-4.69s4.4-7.35,4.42-12.61v-.29Z"/><path class="cls-1" d="M41.71,33.73A14.35,14.35,0,0,0,56.18,19.54,14.35,14.35,0,0,0,41.71,5.34l-.42,0L31.41,29.5a14.57,14.57,0,0,0,10.3,4.23"/><path class="cls-1" d="M43.43.13l-1,2.51a17.07,17.07,0,0,1,16.51,16.9,17.08,17.08,0,0,1-17.2,16.91,17.29,17.29,0,0,1-11.4-4.26l-1,2.37A19.53,19.53,0,1,0,43.43.13"/></g></g></svg>