<svg xmlns="http://www.w3.org/2000/svg" xmlns:xlink="http://www.w3.org/1999/xlink" viewBox="0 0 292.72 32.96"><defs><style>.cls-1{fill:#000102;}.cls-2{fill:url(#Degradado_sin_nombre_13);}</style><radialGradient id="Degradado_sin_nombre_13" cx="-813.64" cy="1181.73" r="1" gradientTransform="matrix(12.14, 0, 0, -12.14, 9919.06, 14366.26)" gradientUnits="userSpaceOnUse"><stop offset="0" stop-color="#458cc8"/><stop offset="0.07" stop-color="#458cc8"/><stop offset="0.99" stop-color="#003a75"/><stop offset="1" stop-color="#003a75"/></radialGradient></defs><g id="Capa_2" data-name="Capa 2"><g id="Capa_1-2" data-name="Capa 1"><polygon class="cls-1" points="173 3.72 184.45 3.72 184.45 32.32 188.3 32.32 188.3 3.72 199.75 3.72 199.75 0 173 0 173 3.72"/><path class="cls-1" d="M228,.26h3.58l.06,18.11A14.22,14.22,0,0,1,227.7,28.7a13.17,13.17,0,0,1-9.57,4,12.84,12.84,0,0,1-9.37-3.82,13.88,13.88,0,0,1-4-10.26L204.78.26h3.67l-.07,18.26a9.78,9.78,0,0,0,2.77,7.23,11,11,0,0,0,7.1,3.17,10.22,10.22,0,0,0,6.65-2.7c2-2,3.08-4.25,3.08-8.1Z"/><polygon class="cls-1" points="3.95 29.2 3.95 0.3 0 0.3 0 32.73 18.77 32.73 18.77 29.2 3.95 29.2"/><rect class="cls-1" x="130.13" y="0.11" width="4.31" height="32.85"/><polygon class="cls-1" points="141.29 4.09 152.74 4.09 152.74 32.69 156.59 32.69 156.59 4.09 168.03 4.09 168.03 0.37 141.29 0.37 141.29 4.09"/><path class="cls-1" d="M257.33,1.53C255.16.76,251.66.37,246.9.37h-8.36V32.69h11.88c4,0,7.13-.59,9.35-1.76a13.49,13.49,0,0,0,5.47-5.46,17,17,0,0,0,2.1-8.54,17.36,17.36,0,0,0-2.65-9.67,14.12,14.12,0,0,0-7.36-5.73m4.19,22.68a10.26,10.26,0,0,1-5.47,4.07c-1.65.53-4.69.8-9,.8H242.2v-25h3.41a37.48,37.48,0,0,1,9.72.89,10.92,10.92,0,0,1,6,4.34A13.28,13.28,0,0,1,263.52,17a12.7,12.7,0,0,1-2,7.23"/><polygon class="cls-1" points="292.72 4.09 292.72 0.37 273.94 0.37 273.94 32.69 292.59 32.69 292.59 28.97 277.72 28.97 277.72 17.13 292.59 17.13 292.59 13.41 277.72 13.41 277.72 4.09 292.72 4.09"/><polygon class="cls-1" points="82.81 24.42 61.6 0 60.52 0 60.52 32.95 64.39 32.95 64.39 8.84 85.42 32.95 86.53 32.95 86.53 0 82.81 0 82.81 24.42"/><path class="cls-1" d="M110.61,16.87v3.49h9.13a10.47,10.47,0,0,1-3.51,6.49,10.23,10.23,0,0,1-7.1,2.61,12.22,12.22,0,0,1-6.41-1.76A12.51,12.51,0,0,1,98,22.89a13.18,13.18,0,0,1-1.71-6.47A12.94,12.94,0,0,1,98,10.12a12.3,12.3,0,0,1,4.64-4.72,12,12,0,0,1,6.14-1.74h.15a11.13,11.13,0,0,1,5.29,1.25,16,16,0,0,1,5.09,3.7l.19.19,2.48-2.52-.18-.18a20.89,20.89,0,0,0-6.38-4.58A16.06,16.06,0,0,0,108.63.08a15.16,15.16,0,0,0-8,2.16,15.43,15.43,0,0,0-5.73,6,17.06,17.06,0,0,0-2.09,8.26A16.46,16.46,0,0,0,96.4,27a15.27,15.27,0,0,0,12.66,5.91,13.35,13.35,0,0,0,10.44-4.28c2.65-2.83,4-6.7,4-11.49v-.27Z"/><rect class="cls-2" x="28.63" y="4.87" width="22.58" height="25.88"/></g></g></svg>