<svg id="Layer_1" data-name="Layer 1" xmlns="http://www.w3.org/2000/svg" xmlns:xlink="http://www.w3.org/1999/xlink" viewBox="0 0 682.97 83.22"><defs><style>.cls-1{fill:#030405;}.cls-2{fill:url(#radial-gradient);}.cls-3{fill:url(#radial-gradient-2);}</style><radialGradient id="radial-gradient" cx="117.07" cy="74.9" r="28.33" gradientUnits="userSpaceOnUse"><stop offset="0.07" stop-color="#4683bf"/><stop offset="0.99" stop-color="#1d3e72"/></radialGradient><radialGradient id="radial-gradient-2" cx="120.44" cy="75.09" r="37.97" xlink:href="#radial-gradient"/></defs><title>LOGO LONGITTUDE</title><polygon class="cls-1" points="403.64 8.68 430.35 8.68 430.35 75.41 439.33 75.41 439.33 8.68 466.04 8.68 466.04 0 403.64 0 403.64 8.68"/><path class="cls-1" d="M555.84,34h8.36l.14,42.24c0,10.73-3.62,18.27-9.15,24.1a30.7,30.7,0,0,1-22.34,9.32A29.88,29.88,0,0,1,511,100.69c-6.19-6.32-9.44-13.93-9.44-23.94L501.7,34h8.56l-.14,42.59c0,8.57,3.5,14,6.45,16.88,3.19,3,9.45,7.39,16.57,7.39a23.9,23.9,0,0,0,15.52-6.3c4.76-4.62,7.18-9.91,7.18-18.89Z" transform="translate(-23.93 -33.35)"/><polygon class="cls-1" points="9.22 68.12 9.22 0.69 0 0.69 0 76.37 43.79 76.37 43.79 68.12 9.22 68.12"/><rect class="cls-1" x="303.62" y="0.25" width="10.05" height="76.64"/><polygon class="cls-1" points="329.65 9.54 356.36 9.54 356.36 76.28 365.34 76.28 365.34 9.54 392.05 9.54 392.05 0.86 329.65 0.86 329.65 9.54"/><path class="cls-1" d="M624.32,36.91c-5.05-1.79-13.24-2.7-24.33-2.7h-19.5v75.41h27.69c9.3,0,16.65-1.38,21.84-4.1a31.7,31.7,0,0,0,12.76-12.76,39.77,39.77,0,0,0,4.9-19.92c0-8.68-2.08-16.27-6.18-22.57A33.06,33.06,0,0,0,624.32,36.91Zm9.78,52.92a23.93,23.93,0,0,1-12.76,9.49c-3.86,1.25-11,1.88-21.05,1.88H589V42.88h8c10.51,0,18.13.7,22.67,2.08a25.53,25.53,0,0,1,14.05,10.12C637.05,60,638.75,66,638.75,73,638.75,79.59,637.18,85.26,634.1,89.83Z" transform="translate(-23.93 -33.35)"/><polygon class="cls-1" points="682.97 9.54 682.97 0.86 639.14 0.86 639.14 76.28 682.67 76.28 682.67 67.6 647.96 67.6 647.96 39.96 682.67 39.96 682.67 31.29 647.96 31.29 647.96 9.54 682.97 9.54"/><polygon class="cls-1" points="193.2 56.97 143.73 0 141.19 0 141.19 76.89 150.24 76.89 150.24 20.62 199.29 76.89 201.88 76.89 201.88 0 193.2 0 193.2 56.97"/><path class="cls-1" d="M282,72.71v8.15h21.3A24.49,24.49,0,0,1,295.11,96a23.84,23.84,0,0,1-16.55,6.09,28.63,28.63,0,0,1-15-4.09,29.23,29.23,0,0,1-11-11.23,30.71,30.71,0,0,1-4-15.09A30.11,30.11,0,0,1,252.46,57a28.63,28.63,0,0,1,10.83-11,28,28,0,0,1,14.31-4.06H278c5.06,0,8,.94,12.34,2.91a37.64,37.64,0,0,1,11.88,8.62l.44.46,5.8-5.87-.43-.43a48.52,48.52,0,0,0-14.88-10.69,37.55,37.55,0,0,0-15.74-3.35,35.31,35.31,0,0,0-18.78,5,36,36,0,0,0-13.36,14,39.77,39.77,0,0,0-4.87,19.27,38.32,38.32,0,0,0,8.49,24.53c7.42,9.27,17.08,13.79,29.52,13.79,10.26,0,18-3.17,24.37-10,6.17-6.6,9.34-15.63,9.4-26.82v-.62Z" transform="translate(-23.93 -33.35)"/><path class="cls-2" d="M112.64,105.08c17,0,30.78-13.54,30.78-30.18s-13.81-30.19-30.78-30.19l-.9,0-21,51.34A31,31,0,0,0,112.64,105.08Z" transform="translate(-23.93 -33.35)"/><path class="cls-3" d="M116.29,33.62,114.1,39c19.49.76,35.11,16.59,35.11,35.94,0,19.84-16.41,36-36.57,36a36.77,36.77,0,0,1-24.25-9.08l-2.06,5a41.53,41.53,0,1,0,30-73.22Z" transform="translate(-23.93 -33.35)"/></svg>